<svg width="24" height="24" viewBox="0 0 24 24" fill="none" xmlns="http://www.w3.org/2000/svg">
<path d="M11.5 5.5V1.5L16.5 6.5L11.5 11.5V7.5C8.19 7.5 5.5 10.19 5.5 13.5C5.5 16.81 8.19 19.5 11.5 19.5C14.81 19.5 17.5 16.81 17.5 13.5H19.5C19.5 17.92 15.92 21.5 11.5 21.5C7.08 21.5 3.5 17.92 3.5 13.5C3.5 9.08 7.08 5.5 11.5 5.5ZM10.16 14.4L10.41 12.23H12.8V12.94H11.1L10.99 13.86C11.02 13.84 11.06 13.83 11.1 13.81C11.14 13.79 11.19 13.77 11.25 13.76C11.31 13.75 11.37 13.73 11.43 13.72C11.49 13.71 11.56 13.7 11.63 13.7C11.84 13.7 12.02 13.73 12.18 13.8C12.34 13.87 12.48 13.96 12.59 14.08C12.7 14.2 12.79 14.35 12.84 14.53C12.89 14.71 12.93 14.91 12.93 15.13C12.93 15.32 12.9 15.5 12.84 15.67C12.78 15.84 12.69 15.99 12.57 16.12C12.45 16.25 12.3 16.36 12.12 16.43C11.94 16.5 11.73 16.55 11.48 16.55C11.3 16.55 11.12 16.52 10.95 16.47C10.78 16.42 10.63 16.33 10.49 16.23C10.35 16.13 10.25 15.99 10.17 15.84C10.09 15.69 10.04 15.51 10.04 15.31H10.88C10.9 15.49 10.96 15.63 11.07 15.72C11.18 15.81 11.32 15.87 11.49 15.87C11.6 15.87 11.69 15.85 11.76 15.81C11.83 15.77 11.9 15.71 11.94 15.64C11.98 15.57 12.02 15.49 12.05 15.39C12.08 15.29 12.08 15.19 12.08 15.08C12.08 14.97 12.07 14.87 12.04 14.77C12.01 14.67 11.97 14.6 11.91 14.53C11.85 14.46 11.78 14.41 11.7 14.38C11.62 14.35 11.51 14.33 11.4 14.33C11.32 14.33 11.25 14.34 11.2 14.35C11.15 14.36 11.09 14.38 11.05 14.4C11.01 14.42 10.97 14.45 10.93 14.47C10.89 14.49 10.86 14.53 10.83 14.56L10.16 14.4Z" fill="white"/>
</svg>
