<svg width="21" height="20" viewBox="0 0 21 20" fill="none" xmlns="http://www.w3.org/2000/svg">
<path d="M14.2256 0H5.84564C2.20564 0 0.0356445 2.17 0.0356445 5.81V14.18C0.0356445 17.83 2.20564 20 5.84564 20H14.2156C17.8556 20 20.0256 17.83 20.0256 14.19V5.81C20.0356 2.17 17.8656 0 14.2256 0ZM9.56564 11.53L5.84564 15.25H8.03564C8.44564 15.25 8.78564 15.59 8.78564 16C8.78564 16.41 8.44564 16.75 8.03564 16.75H4.03564C3.93564 16.75 3.83564 16.73 3.74564 16.69C3.56564 16.61 3.41564 16.47 3.33564 16.28C3.30564 16.19 3.28564 16.1 3.28564 16V12C3.28564 11.59 3.62564 11.25 4.03564 11.25C4.44564 11.25 4.78564 11.59 4.78564 12V14.19L8.50564 10.47C8.79564 10.18 9.27564 10.18 9.56564 10.47C9.85564 10.76 9.85564 11.24 9.56564 11.53ZM16.7856 8C16.7856 8.41 16.4456 8.75 16.0356 8.75C15.6256 8.75 15.2856 8.41 15.2856 8V5.81L11.5656 9.53C11.4156 9.68 11.2256 9.75 11.0356 9.75C10.8456 9.75 10.6556 9.68 10.5056 9.53C10.2156 9.24 10.2156 8.76 10.5056 8.47L14.2256 4.75H12.0356C11.6256 4.75 11.2856 4.41 11.2856 4C11.2856 3.59 11.6256 3.25 12.0356 3.25H16.0356C16.1356 3.25 16.2256 3.27 16.3256 3.31C16.5056 3.39 16.6556 3.53 16.7356 3.72C16.7656 3.81 16.7856 3.9 16.7856 4V8Z" fill="white"/>
</svg>
