<svg width="25" height="24" viewBox="0 0 25 24" fill="none" xmlns="http://www.w3.org/2000/svg">
<path d="M10.6856 19.11V4.89C10.6856 3.54 10.1156 3 8.67564 3H5.04564C3.60564 3 3.03564 3.54 3.03564 4.89V19.11C3.03564 20.46 3.60564 21 5.04564 21H8.67564C10.1156 21 10.6856 20.46 10.6856 19.11Z" fill="white"/>
<path d="M21.0357 19.11V4.89C21.0357 3.54 20.4657 3 19.0257 3H15.3956C13.9656 3 13.3857 3.54 13.3857 4.89V19.11C13.3857 20.46 13.9556 21 15.3956 21H19.0257C20.4657 21 21.0357 20.46 21.0357 19.11Z" fill="white"/>
</svg>
