<svg width="25" height="24" viewBox="0 0 25 24" fill="none" xmlns="http://www.w3.org/2000/svg">
<path d="M20.1356 9.22C18.3256 9.22 17.5856 7.94 18.4856 6.37C19.0056 5.46 18.6956 4.3 17.7856 3.78L16.0556 2.79C15.2656 2.32 14.2456 2.6 13.7756 3.39L13.6656 3.58C12.7656 5.15 11.2856 5.15 10.3756 3.58L10.2656 3.39C9.81564 2.6 8.79564 2.32 8.00564 2.79L6.27564 3.78C5.36564 4.3 5.05564 5.47 5.57564 6.38C6.48564 7.94 5.74564 9.22 3.93564 9.22C2.89564 9.22 2.03564 10.07 2.03564 11.12V12.88C2.03564 13.92 2.88564 14.78 3.93564 14.78C5.74564 14.78 6.48564 16.06 5.57564 17.63C5.05564 18.54 5.36564 19.7 6.27564 20.22L8.00564 21.21C8.79564 21.68 9.81564 21.4 10.2856 20.61L10.3956 20.42C11.2956 18.85 12.7756 18.85 13.6856 20.42L13.7956 20.61C14.2656 21.4 15.2856 21.68 16.0756 21.21L17.8056 20.22C18.7156 19.7 19.0256 18.53 18.5056 17.63C17.5956 16.06 18.3356 14.78 20.1456 14.78C21.1856 14.78 22.0456 13.93 22.0456 12.88V11.12C22.0356 10.08 21.1856 9.22 20.1356 9.22ZM12.0356 15.25C10.2456 15.25 8.78564 13.79 8.78564 12C8.78564 10.21 10.2456 8.75 12.0356 8.75C13.8256 8.75 15.2856 10.21 15.2856 12C15.2856 13.79 13.8256 15.25 12.0356 15.25Z" fill="white"/>
</svg>
