<svg width="24" height="24" viewBox="0 0 24 24" fill="none" xmlns="http://www.w3.org/2000/svg">
<path d="M22.7246 14.6898C22.7246 14.6771 22.7119 14.6643 22.6991 14.6516C22.6481 14.5751 22.5843 14.4985 22.5206 14.4348C22.5078 14.422 22.4951 14.3965 22.4823 14.3838C21.4493 13.2359 19.9316 12.5217 18.2609 12.5217C16.6539 12.5217 15.1872 13.1849 14.1414 14.2562C13.1339 15.2893 12.5217 16.7049 12.5217 18.2609C12.5217 19.3322 12.8278 20.3525 13.3507 21.2197C13.6313 21.6916 13.9884 22.1252 14.3965 22.4823C14.422 22.4951 14.4348 22.5078 14.4475 22.5206C14.5113 22.5843 14.5751 22.6354 14.6516 22.6991C14.6516 22.6991 14.6516 22.6991 14.6643 22.6991C14.6771 22.7119 14.6898 22.7246 14.7026 22.7246C15.6591 23.5281 16.8962 24 18.2609 24C20.3525 24 22.1762 22.8777 23.171 21.2197C23.4643 20.7223 23.6939 20.1739 23.8342 19.6C23.949 19.1664 24 18.72 24 18.2609C24 16.909 23.5281 15.6591 22.7246 14.6898ZM20.4035 19.1919H19.2174V20.429C19.2174 20.9519 18.7838 21.3855 18.2609 21.3855C17.738 21.3855 17.3043 20.9519 17.3043 20.429V19.1919H16.1183C15.5954 19.1919 15.1617 18.7582 15.1617 18.2354C15.1617 17.7125 15.5954 17.2788 16.1183 17.2788H17.3043V16.1438C17.3043 15.6209 17.738 15.1872 18.2609 15.1872C18.7838 15.1872 19.2174 15.6209 19.2174 16.1438V17.2788H20.4035C20.9264 17.2788 21.36 17.7125 21.36 18.2354C21.36 18.7582 20.9391 19.1919 20.4035 19.1919Z" fill="white"/>
<path fill-rule="evenodd" clip-rule="evenodd" d="M0 5C0 2.23858 2.23858 0 5 0H15.8696C18.631 0 20.8696 2.23858 20.8696 5V11.9981C20.0665 11.6632 19.1853 11.4783 18.2609 11.4783C14.5149 11.4783 11.4783 14.5149 11.4783 18.2609C11.4783 19.1853 11.6632 20.0665 11.9981 20.8696H5C2.23858 20.8696 0 18.631 0 15.8696V5ZM14.1522 9.56876C14.8188 9.95366 14.8188 10.9159 14.1522 11.3008L9.32609 14.0871C8.65942 14.472 7.82609 13.9909 7.82609 13.2211L7.82609 7.64844C7.82609 6.87864 8.65942 6.39751 9.32609 6.78241L14.1522 9.56876Z" fill="white"/>
</svg>
