<svg width="18" height="20" viewBox="0 0 18 20" fill="none" xmlns="http://www.w3.org/2000/svg">
<path d="M17.19 12.06L16.06 10.18C15.81 9.76999 15.59 8.97999 15.59 8.49999V6.62999C15.59 2.99999 12.64 0.0499878 9.01999 0.0499878C5.38999 0.0599878 2.43999 2.99999 2.43999 6.62999V8.48999C2.43999 8.96999 2.21999 9.75999 1.97999 10.17L0.849989 12.05C0.419989 12.78 0.319989 13.61 0.589989 14.33C0.859989 15.06 1.46999 15.64 2.26999 15.9C3.34999 16.26 4.43999 16.52 5.54999 16.71C5.65999 16.73 5.76999 16.74 5.87999 16.76C6.01999 16.78 6.16999 16.8 6.31999 16.82C6.57999 16.86 6.83999 16.89 7.10999 16.91C7.73999 16.97 8.37999 17 9.01999 17C9.64999 17 10.28 16.97 10.9 16.91C11.13 16.89 11.36 16.87 11.58 16.84C11.76 16.82 11.94 16.8 12.12 16.77C12.23 16.76 12.34 16.74 12.45 16.72C13.57 16.54 14.68 16.26 15.76 15.9C16.53 15.64 17.12 15.06 17.4 14.32C17.68 13.57 17.6 12.75 17.19 12.06ZM9.74999 7.99999C9.74999 8.41999 9.40999 8.75999 8.98999 8.75999C8.56999 8.75999 8.22999 8.41999 8.22999 7.99999V4.89999C8.22999 4.47999 8.56999 4.13999 8.98999 4.13999C9.40999 4.13999 9.74999 4.47999 9.74999 4.89999V7.99999Z" fill="#2A0E42"/>
<path d="M11.83 18.01C11.41 19.17 10.3 20 8.99999 20C8.20999 20 7.42999 19.68 6.87999 19.11C6.55999 18.81 6.31999 18.41 6.17999 18C6.30999 18.02 6.43999 18.03 6.57999 18.05C6.80999 18.08 7.04999 18.11 7.28999 18.13C7.85999 18.18 8.43999 18.21 9.01999 18.21C9.58999 18.21 10.16 18.18 10.72 18.13C10.93 18.11 11.14 18.1 11.34 18.07C11.5 18.05 11.66 18.03 11.83 18.01Z" fill="#292D32"/>
</svg>
