<svg width="16" height="16" viewBox="0 0 16 18" fill="none" xmlns="http://www.w3.org/2000/svg">
<path d="M7.66671 13.6667C3.90004 13.6667 0.833374 10.6 0.833374 6.83333C0.833374 3.06667 3.90004 0 7.66671 0C11.4334 0 14.5 3.06667 14.5 6.83333C14.5 10.6 11.4334 13.6667 7.66671 13.6667ZM7.66671 1C4.44671 1 1.83337 3.62 1.83337 6.83333C1.83337 10.0467 4.44671 12.6667 7.66671 12.6667C10.8867 12.6667 13.5 10.0467 13.5 6.83333C13.5 3.62 10.8867 1 7.66671 1Z" fill="#ffffff"/>
<path d="M14.6667 14.3333C14.54 14.3333 14.4134 14.2867 14.3134 14.1867L12.98 12.8533C12.7867 12.66 12.7867 12.34 12.98 12.1467C13.1734 11.9533 13.4934 11.9533 13.6867 12.1467L15.02 13.48C15.2134 13.6733 15.2134 13.9933 15.02 14.1867C14.92 14.2867 14.7934 14.3333 14.6667 14.3333Z" fill="#ffffff"/>
</svg>
